<svg xmlns="http://www.w3.org/2000/svg" xmlns:xlink="http://www.w3.org/1999/xlink" width="14" height="14" viewBox="0 0 14 14"><defs><path id="ybuna" d="M1312.58 1262.58a5.5 5.5 0 1 1 7.79 7.78 5.5 5.5 0 0 1-7.79-7.78zm1.51 6.28a3.38 3.38 0 1 0 4.77-4.77 3.38 3.38 0 0 0-4.77 4.77z"/><path id="ybunb" d="M1319.24 1270l.75-.76a.71.71 0 0 1 1 0l3.78 3.77c.27.27.27.72 0 1l-.76.75a.71.71 0 0 1-1 0l-3.77-3.76a.71.71 0 0 1 0-1z"/></defs><g><g transform="translate(-1311 -1261)"><use fill="#fff" xlink:href="#ybuna"/></g><g transform="translate(-1311 -1261)"><use fill="#fff" xlink:href="#ybunb"/></g></g></svg>