<?xml version="1.0" encoding="UTF-8" standalone="no"?>
<!-- Created with Inkscape (http://www.inkscape.org/) -->

<svg
   xmlns="http://www.w3.org/2000/svg"
   id="svg5167"
   width="504.67999"
   height="965"
   viewBox="0 0 504.67997 964.99996"
   version="1.1">

   <g fill="#F2BE24" fill-opacity="1" stroke-width="1.33333337">

  <path
     d="m 25.178247,73.48571 c -2.67028,0.197 -13.70508,9.89645 -13.70508,12.17188 0,0.62957 -1.43994,3.05427 -3.2011705,5.38867 -6.2448303,8.27713 -10.3294203,21.78534 -7.1894503,23.77735 2.45307,1.55622 9.6734408,1.38587 18.4824208,-0.4336 6.47857,-1.33813 8.72786,-1.22464 15.41406,0.77539 8.08593,2.41872 19.50717,6.49543 26.49414,9.45703 2.2,0.93254 7.9013,3.03583 12.66797,4.67188 4.76666,1.63607 9.23693,3.50442 9.9336,4.15234 0.69667,0.64793 2.5264,1.17774 4.0664,1.17774 1.54,0 3.36975,0.51192 4.06641,1.13867 0.69667,0.62673 7.266275,3.38229 14.599603,6.12305 7.33334,2.74075 16.63268,6.22517 20.66601,7.74218 15.03467,5.65487 39.36084,16.13205 40.12305,17.28125 0.43403,0.6544 -0.2718,4.30812 -1.56836,8.11914 -1.8376,5.40182 -2.24351,10.01558 -1.84375,20.92969 0.5218,14.24573 1.00952,18.36819 3.15234,26.66602 6.1726,23.90234 6.85724,25.8522 16.29883,46.41992 4.44108,9.67453 16.42591,22.47471 27.85352,29.74804 6.8155,4.3379 36.94529,19.57577 45.98437,23.25586 24.59639,10.01395 25.93949,10.76447 25.29297,14.14258 -1.00895,5.27188 -4.52074,22.92048 -5.25976,26.4336 -5.5365,26.31967 -7.53926,35.77451 -8.04688,38 -1.70086,7.45696 -2.42289,10.90954 -2.78906,13.33398 -0.22152,1.46667 -0.73071,4.46602 -1.13281,6.66602 -0.40211,2.2 -1.03311,5.8 -1.40235,8 -0.36924,2.2 -0.96718,5.50065 -1.32812,7.33398 -0.36095,1.83334 -1.26086,6.63269 -2,10.66602 -1.7591,9.59902 -2.35338,12.66301 -4.00586,20.66601 -2.5993,12.58844 -2.86945,19.33399 -0.77344,19.33399 5.14672,0 15.60724,13.18247 13.03711,16.42968 -1.70187,2.15021 -4.59695,11.36916 -5.09766,16.23633 -0.22633,2.2 -0.75804,5.50066 -1.18164,7.33399 -1.78429,7.72256 -0.59503,18.36812 3.49219,31.29101 2.32656,7.35606 4.74637,13.94591 5.37891,14.64258 0.63252,0.69667 1.15039,2.41182 1.15039,3.8125 0,4.98872 8.09765,17.83102 14.06055,22.29883 3.40778,2.55336 6.42278,6.13416 7.16796,8.51367 0.70742,2.25888 1.24808,20.30742 1.20118,40.10742 -0.0847,35.75231 0.92845,48.08871 4.9121,59.82227 1.27694,3.76111 1.56806,7.04382 0.85157,9.61133 -1.53873,5.51398 0.55032,11.9793 4.82422,14.92578 2.00682,1.38353 8.04914,4.72149 13.42773,7.41601 12.68272,6.35367 14.02644,7.34864 19.64063,14.55469 6.82437,8.75938 11.60481,22.65524 10.52929,30.60352 -1.16,8.5725 -2.60355,9.42891 -14.56445,8.64062 -11.9757,-0.78928 -11.50978,-1.10227 -23.40234,15.75977 -4.65488,6.6 -10.30587,14.19127 -12.55665,16.86914 -8.77704,10.44248 -19.75172,27.70035 -19.17968,30.16015 0.12412,0.5337 -0.54591,3.67071 -1.48828,6.97071 -2.2634,7.926 -2.32018,22.8779 -0.12305,32 4.54535,18.87143 15.37123,37.91604 28.60351,50.31644 11.4946,10.7719 25.25985,16.6447 43.42969,18.5312 4.03334,0.4188 7.56755,0.9829 7.85352,1.2539 0.95715,0.90697 26.08639,-0.6235 30.8125,-1.8769 6.6962,-1.7757 10.99731,-4.3226 19.67578,-11.6504 15.40379,-13.0064 19.55808,-18.1388 26.36328,-32.57424 1.9014,-4.0333 4.05092,-8.42577 4.77734,-9.75977 1.69425,-3.11153 3.51324,-19.71373 3.75,-34.24023 0.15365,-9.4281 -0.71842,-17.0787 -2.96093,-26 -0.72496,-2.8841 -5.90776,-16.00396 -7.76172,-19.64844 -0.64777,-1.27339 -1.17774,-3.12533 -1.17774,-4.11524 0,-0.9899 -2.68639,-5.94752 -5.9707,-11.01757 -7.64049,-11.79476 -7.88277,-16.16238 -1.20117,-21.66993 2.65518,-2.18861 7.4634,-4.64372 10.68555,-5.45507 5.05791,-1.27358 5.77552,-1.88191 5.24609,-4.45118 -0.33728,-1.63676 -0.98095,-5.9759 -1.42969,-9.64257 -0.753,-6.1528 -8.6453,-31.99735 -11.21094,-36.71094 -0.61184,-1.12408 -1.55891,-4.12344 -2.10351,-6.66602 -0.54459,-2.5426 -1.63886,-5.42955 -2.43359,-6.41406 -0.81611,-1.01095 -1.55516,-8.55349 -1.69727,-17.33203 -0.13838,-8.54883 -0.90031,-17.18412 -1.69336,-19.18945 -0.79307,-2.00533 -2.93226,-9.24734 -4.75391,-16.09375 -3.17331,-11.92636 -3.31618,-14.16292 -3.39648,-53.34571 -0.0949,-46.31044 -0.0233,-46.72295 9.95898,-56.91406 8.37842,-8.55374 10.26351,-13.99928 10.83985,-31.33398 0.26818,-8.06666 0.74955,-22.46666 1.07031,-32 0.6013,-17.87117 1.48122,-25.03336 3.55078,-28.90235 1.0938,-2.04486 0.66283,-49.8541 -0.75195,-83.40234 -0.67056,-15.90069 0.4382,-18.32742 7.45703,-16.31445 5.19043,1.4886 8.70796,3.77412 15.125,9.82617 3.96094,3.73564 4.84587,5.38989 4.15234,7.76953 -3.02415,10.37625 -3.19241,11.87498 -1.83789,16.35742 0.66481,2.2 1.42227,4.9 1.6836,6 0.26135,1.1 1.19809,3.8 2.08203,6 6.10142,15.18554 7.48105,31.53059 3.57422,42.34766 -2.63796,7.30385 -1.51165,12.64971 2.86328,13.59765 6.91011,1.49724 18.78317,-0.45719 25.03515,-4.12109 10.47624,-6.13949 11.1564,-13.80756 1.77539,-20.01563 -6.21621,-4.11369 -6.25458,-4.24897 -7.25586,-25.05078 -0.4211,-8.74899 -1.13547,-17.38097 -1.58789,-19.18359 -0.45243,-1.80261 -0.92837,-4.24404 -1.05664,-5.42578 -0.24948,-2.29762 -1.89145,-6.54738 -6.24023,-16.14844 -1.49474,-3.3 -3.23176,-7.20131 -3.85938,-8.66797 -0.62763,-1.46667 -3.27257,-7.32988 -5.8789,-13.02929 -2.60634,-5.69944 -4.74024,-10.68724 -4.74024,-11.08399 0,-0.39674 -1.56931,-4.13222 -3.48828,-8.30273 -1.91899,-4.17051 -4.65695,-10.28399 -6.08398,-13.58399 -1.42702,-3.30001 -3.11479,-6.97492 -3.75196,-8.16797 -0.63715,-1.19306 -1.56839,-4.35056 -2.06835,-7.01562 -0.49997,-2.66504 -1.4416,-5.17433 -2.0918,-5.57617 -0.6502,-0.40185 -1.18255,-1.74432 -1.18555,-2.98438 -0.006,-2.93218 -6.61647,-19.68651 -9.95898,-25.24414 -3.07918,-5.11979 -7.65665,-6.8723 -21.38477,-8.18359 -5.48725,-0.52415 -10.64036,-1.61498 -11.44922,-2.42383 -1.07193,-1.07194 -0.89096,-3.45954 0.66407,-8.80859 2.81125,-9.67036 2.69599,-18.06037 -0.34375,-25.15235 -1.42131,-3.31604 -2.73854,-10.33111 -3.09375,-16.46875 -1.03281,-17.84587 -7.24183,-27.67009 -27.09571,-42.87305 -3.66666,-2.80772 -8.93801,-6.1553 -11.71289,-7.4375 -5.50386,-2.5432 -14.97348,-3.12159 -16.28711,-0.99609 -0.45322,0.73333 -1.87086,1.33203 -3.15039,1.33203 -2.95652,0 -10.18612,7.43889 -12.3125,12.66797 -0.89462,2.2 -1.73607,5.8 -1.86914,8 -0.37926,6.27193 -2.13995,14.52445 -3.43555,16.10352 -0.64891,0.79089 -1.40078,2.59089 -1.67187,4 -0.2711,1.40912 -0.83441,3.4625 -1.25,4.5625 -0.41559,1.1 -1.12701,3.69273 -1.58203,5.76172 -0.75561,3.43574 -1.19854,3.6838 -5.11133,2.85742 -2.35623,-0.49764 -13.58451,-4.79199 -24.95117,-9.54297 -51.04624,-21.33601 -59.81022,-25.0694 -67.30274,-28.65821 -8.53138,-4.08638 -16.69726,-11.03896 -16.69726,-14.21874 0,-4.32845 -10.33548,-11.87099 -21.25,-15.50586 l -10.76563,-3.58399 -4.09375,3.44531 c -2.25204,1.89496 -4.96008,3.44532 -6.01757,3.44532 -2.13729,0 -17.76085,-5.30117 -24.72461,-8.38868 -22.43522,-9.94706 -28.22891,-12.53129 -35.48438,-15.82617 -4.58529,-2.08228 -8.661348,-3.78515 -9.056638,-3.78515 -0.39529,0 -4.742685,-1.88487 -9.662105,-4.1875 -25.01733,-11.70984 -31.20834,-14.47852 -32.35742,-14.47852 -0.68992,0 -1.25391,-0.52751 -1.25391,-1.17187 0,-0.64436 -1.71092,-1.88046 -3.80078,-2.7461 -6.16005,-2.55159 -14.97092,-12.61235 -18.96875,-21.66015 -2.10103,-4.75502 -4.69738,-8.62278 -5.96289,-8.88282 -0.0681,-0.014 -0.14433,-0.0181 -0.23047,-0.0117 z M 199.53176,182.62439 c 2.03422,0 11.10409,3.05979 20.15429,6.79882 9.05021,3.73903 21.85508,8.87093 28.45508,11.4043 28.57641,10.96888 33.56708,13.01518 37.66602,15.44531 2.38333,1.41301 4.33398,2.20701 4.33398,1.76563 0,-0.44138 2.25,0.33072 5,1.71484 2.75,1.38412 9.79935,3.89275 15.66602,5.57422 5.86667,1.68148 11.26667,3.59968 12,4.26367 0.73333,0.66397 1.33398,3.94312 1.33398,7.28711 0,4.08649 0.65575,6.39612 2,7.04492 9.08047,4.38274 9.97226,5.27542 11.58008,11.57813 4.04392,15.85216 -2.69616,30.23357 -14.49414,30.92969 -3.0587,0.18048 -5.97022,0.5813 -6.4707,0.89062 -0.50049,0.3093 -1.14623,0.3284 -1.4336,0.041 -0.28736,-0.28737 -5.02127,-0.87693 -10.51953,-1.31055 -36.19825,-2.85474 -76.42287,-16.2371 -84.97461,-28.26953 -3.00394,-4.22661 -16.33549,-28.17967 -21.28906,-38.25 -1.73832,-3.53392 -5.1385,-8.40219 -7.55469,-10.81836 -4.5648,-4.56482 -5.05492,-7.28183 -2.96289,-16.40625 1.20048,-5.23586 6.48645,-9.68359 11.50977,-9.68359 z"
     id="path5181"/>
  <path
     d="m 358.57524,0.24277 c -0.3107,-0.08503 -0.60412,-0.0088 -0.80761,0.109253 -0.17559,0.101795 -0.28148,0.223584 -0.34919,0.31062 -0.27339,0.351462 -0.36793,0.684426 -0.50341,1.122513 -0.27859,0.900814 -0.58082,2.274639 -0.91686,4.080893 -0.67216,3.61303 -1.45611,8.923018 -2.19789,15.09181 -0.73883,6.144227 -1.51968,11.843938 -2.17648,16.06651 -0.32842,2.111238 -0.62678,3.854526 -0.87188,5.087728 -0.10552,0.530931 -0.19352,0.915013 -0.2742,1.236053 -0.12158,-0.0452 -0.22381,-0.0772 -0.40488,-0.16281 -0.76321,-0.36087 -1.86995,-0.975763 -3.19831,-1.780168 -2.65691,-1.608935 -6.21997,-3.984198 -10.02336,-6.720086 -3.8284,-2.753881 -7.36347,-5.206871 -9.98052,-6.949302 -1.30844,-0.871166 -2.38439,-1.564529 -3.17045,-2.035091 -0.39271,-0.235088 -0.70983,-0.415811 -0.97256,-0.544119 -0.12882,-0.0629 -0.24914,-0.117532 -0.39417,-0.162808 -0.0624,-0.0195 -0.16298,-0.05083 -0.30205,-0.05999 -0.11078,-0.0072 -0.46151,-0.01452 -0.76691,0.269919 -0.31176,0.29038 -0.32286,0.650635 -0.31918,0.775476 0.004,0.144865 0.033,0.250284 0.0514,0.314903 0.0419,0.147333 0.0937,0.269994 0.15424,0.400593 0.12286,0.265271 0.29744,0.584466 0.52483,0.981128 0.45524,0.794111 1.12913,1.885411 1.97726,3.21116 1.69633,2.651635 4.08933,6.234722 6.7822,10.124044 2.6804,3.871301 5.05308,7.455871 6.70938,10.098341 0.82822,1.32134 1.48092,2.40938 1.89156,3.16189 0.0358,0.0655 0.0505,0.10272 0.075,0.15209 -0.22186,0.0344 -0.42455,0.0659 -0.74762,0.10712 -1.16277,0.14822 -2.82784,0.32886 -4.85852,0.52698 -4.06128,0.39624 -9.5942,0.86298 -15.61022,1.30888 -12.04587,0.89284 -29.79693,2.23311 -39.45078,2.97767 -9.64448,0.74383 -20.20871,1.44602 -23.35856,1.55523 -1.31952,0.0457 -2.34412,0.0998 -3.07192,0.16709 -0.36263,0.0335 -0.64876,0.0672 -0.89758,0.11997 -0.11785,0.025 -0.24525,0.0533 -0.39845,0.1221 -0.0698,0.0313 -0.1831,0.0874 -0.3042,0.19709 -0.13787,0.12483 -0.31759,0.36019 -0.33632,0.69835 -0.0189,0.34196 0.13909,0.59954 0.27206,0.74335 0.11474,0.12411 0.22571,0.19122 0.29562,0.22921 0.15161,0.0824 0.27957,0.12236 0.39845,0.15639 0.25152,0.072 0.54974,0.12766 0.94043,0.19065 0.78303,0.12624 1.92791,0.26306 3.49607,0.42201 6.26736,0.6353 19.27363,1.83589 41.12598,3.33755 11.82891,0.81287 22.65129,1.3829 30.5478,2.02867 3.95065,0.32308 7.17197,0.60466 9.41926,0.82689 1.05619,0.10444 1.8532,0.19331 2.44639,0.26777 -0.0106,0.0224 -0.0144,0.0353 -0.0279,0.0621 -0.34624,0.69115 -0.90779,1.69627 -1.62807,2.91125 -1.44063,2.43006 -3.52272,5.71782 -5.88892,9.25859 -2.37535,3.55449 -4.6625,6.99919 -6.43088,9.6849 -1.76829,2.68556 -2.98844,4.56185 -3.34612,5.16699 -0.023,0.0389 -0.12012,0.15547 -0.16924,0.33204 -0.0491,0.17656 -0.0406,0.40897 0.0728,0.67693 0.13636,0.32213 0.40914,0.50843 0.65552,0.58054 0.19974,0.0585 0.36084,0.0466 0.452,0.0364 0.39237,-0.0439 0.62926,-0.17755 0.94686,-0.33205 0.66489,-0.32342 1.61026,-0.87464 2.82556,-1.63237 2.43097,-1.51566 5.90834,-3.84686 9.87341,-6.64723 3.94303,-2.78481 7.6209,-5.25973 10.35753,-6.99428 1.36826,-0.86725 2.50473,-1.55192 3.30113,-1.98797 0.16885,-0.0925 0.27055,-0.13713 0.38989,-0.19494 0.0596,0.23674 0.11763,0.46477 0.19279,0.82475 0.23374,1.11942 0.52754,2.7315 0.85045,4.70213 0.64589,3.94149 1.42249,9.32122 2.1765,15.17536 0.75705,5.87781 1.55337,11.01164 2.23002,14.5691 0.33831,1.77861 0.64434,3.1547 0.91687,4.07876 0.1348,0.45714 0.24281,0.79975 0.437,1.12251 0.0645,0.10728 0.23724,0.45309 0.72622,0.57839 0.30254,0.0776 0.62014,0.0113 0.85901,-0.15852 0.2004,-0.14202 0.30201,-0.31294 0.35561,-0.41773 0.15421,-0.30153 0.22187,-0.58389 0.32347,-0.99184 0.1032,-0.41445 0.21705,-0.93882 0.34274,-1.57024 0.25136,-1.2626 0.54794,-2.94789 0.87403,-4.94632 0.65217,-3.99674 1.41957,-9.24237 2.14434,-14.78121 0.72242,-5.52083 1.45628,-10.5402 2.05652,-14.16851 0.30013,-1.81418 0.5666,-3.28159 0.77762,-4.27584 0.0366,-0.17239 0.0646,-0.26951 0.0942,-0.38773 0.45363,0.27739 1.01518,0.63381 1.74161,1.1118 1.61016,1.05949 3.80654,2.55439 6.28736,4.27797 4.96162,3.44716 11.06643,7.80858 15.95298,11.4415 1.46837,1.09166 2.50231,1.87262 3.32254,2.25144 0.19596,0.0906 0.41686,0.1865 0.72407,0.20137 0.1587,0.007 0.3773,-0.0102 0.60409,-0.12853 0.24495,-0.12697 0.42524,-0.34112 0.51843,-0.57411 0.16114,-0.40288 0.0717,-0.72484 0.0151,-0.93186 -0.0642,-0.23388 -0.15954,-0.46226 -0.28276,-0.71977 -0.98819,-2.06507 -4.09062,-6.54832 -10.23329,-15.44098 -4.36375,-6.31732 -6.63388,-9.73467 -7.32419,-11.36438 -0.1724,-0.40695 -0.24093,-0.70485 -0.25064,-0.83546 -0.004,-0.0623 -0.002,-0.0756 -0.002,-0.0835 -0.002,0.004 -0.0109,0.01 0.0171,-0.006 0.0414,-0.0242 0.10848,-0.0571 0.19708,-0.0943 0.17725,-0.0742 0.44368,-0.16426 0.8012,-0.24636 1.67335,-0.38425 9.65639,-1.87 17.52534,-3.24972 3.94605,-0.69188 7.48472,-1.36655 10.01908,-1.89799 1.26704,-0.26569 2.28103,-0.49379 2.98623,-0.67693 0.3517,-0.0913 0.62134,-0.16735 0.84402,-0.2485 0.10127,-0.0369 0.21359,-0.0751 0.36202,-0.16923 0.0316,-0.02 0.21633,-0.12481 0.35562,-0.36632 0.0812,-0.14097 0.15987,-0.35748 0.12639,-0.6191 -0.0341,-0.26548 -0.16813,-0.46674 -0.30206,-0.59338 -0.26229,-0.24804 -0.45487,-0.26046 -0.44557,-0.25707 -0.0967,-0.0352 -0.19684,-0.0662 -0.31063,-0.0985 -0.22861,-0.065 -0.52489,-0.14055 -0.89329,-0.22707 -0.73576,-0.17281 -1.75396,-0.39165 -2.99051,-0.6448 -2.47343,-0.50637 -5.81499,-1.14625 -9.44068,-1.8016 -7.23592,-1.3079 -14.96929,-2.74216 -17.12691,-3.17474 L 376,55 385.65704,40.593699 c 4.72411,-7.047302 7.19292,-10.776905 8.03968,-12.621852 0.19961,-0.434874 0.41184,-0.792554 0.31705,-1.383863 -0.0317,-0.197881 -0.1359,-0.381075 -0.27421,-0.546259 -0.1383,-0.165186 -0.31292,-0.311194 -0.53553,-0.372743 -0.36387,-0.100597 -0.64724,-0.01227 -0.82477,0.04713 -0.77408,0.25904 -1.51857,0.843691 -2.6606,1.696626 -6.05832,4.52469 -12.28671,8.961 -17.04763,12.195551 -2.38046,1.617263 -4.39799,2.935123 -5.82894,3.806691 -0.54822,0.33391 -0.92492,0.54112 -1.27247,0.72621 -0.0391,-0.20213 -0.0771,-0.38397 -0.12639,-0.67479 -0.18458,-1.088979 -0.41944,-2.646095 -0.68981,-4.545757 -0.54066,-3.799212 -1.21748,-8.972337 -1.89797,-14.59696 C 362.17326,18.68501 361.44269,13.263104 360.81393,9.06264 360.49954,6.96236 360.20932,5.16673 359.96348,3.797109 359.718,2.429661 359.55158,1.55252 359.34223,0.990824 359.28383,0.83424 359.11707,0.391476 358.57532,0.243197 Z"
     id="path4656" />
   </g>
</svg>
